<svg style="display:none;" xmlns="http://www.w3.org/2000/svg" xmlns:xlink="http://www.w3.org/1999/xlink"><style>:root>svg{display:none}:root>svg:target{display:block}</style><svg fill="#fff" viewBox="0 0 438.549 438.549" id="cat" xmlns="http://www.w3.org/2000/svg"><path d="M409.132 114.573c-19.608-33.596-46.205-60.194-79.798-79.8-33.598-19.607-70.277-29.408-110.063-29.408-39.781 0-76.472 9.804-110.063 29.408-33.596 19.605-60.192 46.204-79.8 79.8C9.803 148.168 0 184.854 0 224.63c0 47.78 13.94 90.745 41.827 128.906 27.884 38.164 63.906 64.572 108.063 79.227 5.14.954 8.945.283 11.419-1.996 2.475-2.282 3.711-5.14 3.711-8.562 0-.571-.049-5.708-.144-15.417a2549.81 2549.81 0 01-.144-25.406l-6.567 1.136c-4.187.767-9.469 1.092-15.846 1-6.374-.089-12.991-.757-19.842-1.999-6.854-1.231-13.229-4.086-19.13-8.559-5.898-4.473-10.085-10.328-12.56-17.556l-2.855-6.57c-1.903-4.374-4.899-9.233-8.992-14.559-4.093-5.331-8.232-8.945-12.419-10.848l-1.999-1.431c-1.332-.951-2.568-2.098-3.711-3.429-1.142-1.331-1.997-2.663-2.568-3.997-.572-1.335-.098-2.43 1.427-3.289 1.525-.859 4.281-1.276 8.28-1.276l5.708.853c3.807.763 8.516 3.042 14.133 6.851 5.614 3.806 10.229 8.754 13.846 14.842 4.38 7.806 9.657 13.754 15.846 17.847 6.184 4.093 12.419 6.136 18.699 6.136 6.28 0 11.704-.476 16.274-1.423 4.565-.952 8.848-2.383 12.847-4.285 1.713-12.758 6.377-22.559 13.988-29.41-10.848-1.14-20.601-2.857-29.264-5.14-8.658-2.286-17.605-5.996-26.835-11.14-9.235-5.137-16.896-11.516-22.985-19.126-6.09-7.614-11.088-17.61-14.987-29.979-3.901-12.374-5.852-26.648-5.852-42.826 0-23.035 7.52-42.637 22.557-58.817-7.044-17.318-6.379-36.732 1.997-58.24 5.52-1.715 13.706-.428 24.554 3.853 10.85 4.283 18.794 7.952 23.84 10.994 5.046 3.041 9.089 5.618 12.135 7.708 17.705-4.947 35.976-7.421 54.818-7.421s37.117 2.474 54.823 7.421l10.849-6.849c7.419-4.57 16.18-8.758 26.262-12.565 10.088-3.805 17.802-4.853 23.134-3.138 8.562 21.509 9.325 40.922 2.279 58.24 15.036 16.18 22.559 35.787 22.559 58.817 0 16.178-1.958 30.497-5.853 42.966-3.9 12.471-8.941 22.457-15.125 29.979-6.191 7.521-13.901 13.85-23.131 18.986-9.232 5.14-18.182 8.85-26.84 11.136-8.662 2.286-18.415 4.004-29.263 5.146 9.894 8.562 14.842 22.077 14.842 40.539v60.237c0 3.422 1.19 6.279 3.572 8.562 2.379 2.279 6.136 2.95 11.276 1.995 44.163-14.653 80.185-41.062 108.068-79.226 27.88-38.161 41.825-81.126 41.825-128.906-.01-39.771-9.818-76.454-29.414-110.049z"/></svg><svg fill="#3AAA64" viewBox="0 0 512.183 512.183" id="chain" xmlns="http://www.w3.org/2000/svg"><path d="M312.923 199.259a116.167 116.167 0 00-20.053-16.128c-38.498-24.667-87.699-25.197-126.72-1.365a120.636 120.636 0 00-22.528 17.835L34.993 308.23c-46.657 46.657-46.657 122.303 0 168.96 46.657 46.657 122.303 46.657 168.96 0l89.6-89.6a8.534 8.534 0 00-6.058-14.592h-3.413a143.626 143.626 0 01-54.613-10.581 8.533 8.533 0 00-9.301 1.877l-64.427 64.512c-20.006 20.006-52.442 20.006-72.448 0-20.006-20.006-20.006-52.442 0-72.448l108.629-108.8c19.913-20.077 52.33-20.21 72.407-.297l.297.297c13.518 12.895 34.781 12.895 48.299 0a34.135 34.135 0 009.899-22.016 34.142 34.142 0 00-9.901-26.283zm-12.445 36.51l-.013.013c-6.776 6.404-17.373 6.404-24.149 0-26.656-26.639-69.856-26.639-96.512 0L71.259 344.411c-26.651 26.675-26.632 69.904.043 96.555 26.675 26.651 69.904 26.632 96.555-.043l60.501-60.587a158.987 158.987 0 0039.339 8.96l-75.776 75.861c-40.059 40.059-105.008 40.059-145.067 0-40.059-40.059-40.059-105.008 0-145.067l108.8-108.459a103.432 103.432 0 0119.029-15.275 102.393 102.393 0 0153.419-14.677 102.397 102.397 0 0155.296 16.128 99.018 99.018 0 0117.067 13.824c6.668 6.663 6.674 17.469.013 24.138z"/><path d="M477.19 34.993c-46.657-46.657-122.303-46.657-168.96 0l-89.515 89.515a8.533 8.533 0 00-1.792 9.387 8.532 8.532 0 008.021 5.205h3.157a143.354 143.354 0 0154.528 10.667 8.533 8.533 0 009.301-1.877l64.512-64.512c20.006-20.006 52.442-20.006 72.448 0 20.006 20.006 20.006 52.442 0 72.448l-80.043 79.872-.683.768-27.904 28.16c-19.913 20.077-52.331 20.21-72.407.297l-.297-.297c-13.518-12.895-34.781-12.895-48.299 0a34.135 34.135 0 00-9.899 22.016 34.133 34.133 0 009.899 26.283 118.447 118.447 0 0034.133 23.893c1.792.853 3.499 1.621 5.376 2.304 1.877.683 3.499 1.451 5.461 2.048s3.669 1.28 5.461 1.792l5.035 1.365c3.413.853 6.827 1.536 10.325 2.133 4.214.626 8.458 1.025 12.715 1.195h12.458c1.877 0 3.84 0 6.059-.512h2.901l5.888-.853 2.731-.512 4.949-1.024h.939a119.456 119.456 0 0055.381-31.403L477.19 203.953c46.657-46.657 46.657-122.303 0-168.96zm-11.861 157.098l-108.8 108.459a102.402 102.402 0 01-47.872 27.051l-4.437.853-2.56.512-4.864.683h-2.901l-4.864.427H278.279a97.109 97.109 0 01-10.24-1.024c-2.901-.512-5.888-1.109-8.533-1.792l-4.352-1.195c-1.451 0-2.816-.853-4.608-1.536s-3.072-1.109-4.693-1.707l-4.608-1.963a101.626 101.626 0 01-29.269-20.48c-6.669-6.669-6.669-17.481 0-24.149 6.669-6.669 17.481-6.669 24.149 0 26.656 26.639 69.856 26.639 96.512 0l28.331-28.672.683-.768 79.36-79.275c26.445-26.65 26.407-69.653-.085-96.256-26.645-26.675-69.869-26.699-96.544-.054l-.054.054-60.587 60.587a159.677 159.677 0 00-39.168-9.045l75.691-75.776c40.059-40.059 105.008-40.059 145.067 0 40.057 40.059 40.057 105.007-.002 145.066z"/></svg><svg fill="#8e9394" viewBox="0 0 58 58" id="css" xmlns="http://www.w3.org/2000/svg"><path d="M50.949 12.187l-1.361-1.361-9.504-9.505-.002-.001-.77-.771A1.867 1.867 0 0037.985 0H8.963C7.776 0 6.5.916 6.5 2.926V56c0 .837.841 1.652 1.836 1.909.051.014.1.033.152.043.156.031.315.048.475.048h40.074c.16 0 .319-.017.475-.048.052-.01.101-.029.152-.043.995-.257 1.836-1.072 1.836-1.909V13.978c0-.767-.093-1.334-.551-1.791zM39.5 3.565L47.935 12H39.5V3.565zM8.963 56c-.071 0-.135-.025-.198-.049a.46.46 0 01-.265-.414V41h41v14.537a.46.46 0 01-.265.414c-.063.024-.127.049-.198.049H8.963zM8.5 39V2.926c0-.217.033-.926.463-.926h28.595a1.54 1.54 0 00-.058.391V13.78a2.976 2.976 0 00-2-.78 1 1 0 100 2c.552 0 1 .449 1 1v4c0 1.2.542 2.266 1.382 3a3.975 3.975 0 00-1.382 3v4c0 .551-.448 1-1 1a1 1 0 100 2c1.654 0 3-1.346 3-3v-4c0-1.103.897-2 2-2a1 1 0 100-2c-1.103 0-2-.897-2-2v-4a2.98 2.98 0 00-.78-2h11.389c.135 0 .265-.025.391-.058l.001.036V39H8.5z"/><path d="M20.034 45.954c.241-.306.515-.521.82-.649s.627-.191.964-.191c.301 0 .59.06.868.178s.531.31.759.574l1.135-1.012c-.374-.364-.798-.638-1.271-.82s-.984-.273-1.531-.273c-.593 0-1.144.111-1.654.335s-.955.549-1.333.978-.675.964-.889 1.606c-.214.643-.321 1.388-.321 2.235s.107 1.595.321 2.242c.214.647.511 1.185.889 1.613s.82.752 1.326.971 1.06.328 1.661.328c.547 0 1.058-.091 1.531-.273s.897-.456 1.271-.82l-1.135-.998c-.237.265-.499.456-.786.574s-.595.178-.923.178-.641-.07-.937-.212-.561-.364-.793-.67-.415-.699-.547-1.183-.203-1.066-.212-1.75c.009-.702.082-1.294.219-1.777s.327-.878.568-1.184zM31.532 49.064c-.314-.228-.654-.422-1.019-.581s-.702-.323-1.012-.492-.569-.364-.779-.588-.314-.518-.314-.882c0-.146.036-.299.109-.458s.173-.303.301-.431.273-.234.438-.321.337-.139.52-.157c.328-.027.597-.032.807-.014s.378.05.506.096.226.091.294.137.13.082.185.109c.009-.009.036-.055.082-.137s.101-.185.164-.308l.205-.396a8.49 8.49 0 00.191-.39c-.265-.173-.61-.299-1.039-.376s-.853-.116-1.271-.116c-.41 0-.8.063-1.169.191s-.692.313-.971.554-.499.535-.663.882-.246.743-.246 1.189c0 .492.104.902.314 1.23s.474.613.793.854.661.451 1.025.629.704.355 1.019.533.576.376.786.595.314.483.314.793c0 .511-.148.896-.444 1.155s-.723.39-1.278.39c-.183 0-.378-.019-.588-.055s-.419-.084-.629-.144-.412-.123-.608-.191-.357-.139-.485-.212l-.287 1.176c.155.137.34.253.554.349s.439.171.677.226.472.094.704.116.458.034.677.034c.511 0 .966-.077 1.367-.232s.738-.362 1.012-.622.485-.561.636-.902.226-.695.226-1.06c0-.538-.104-.978-.314-1.319s-.475-.626-.79-.854zM38.942 49.064c-.314-.228-.654-.422-1.019-.581s-.702-.323-1.012-.492-.569-.364-.779-.588-.314-.518-.314-.882c0-.146.036-.299.109-.458s.173-.303.301-.431.273-.234.438-.321.337-.139.52-.157c.328-.027.597-.032.807-.014s.378.05.506.096.226.091.294.137.13.082.185.109c.009-.009.036-.055.082-.137s.101-.185.164-.308l.205-.396a8.49 8.49 0 00.191-.39c-.265-.173-.61-.299-1.039-.376s-.853-.116-1.271-.116c-.41 0-.8.063-1.169.191s-.692.313-.971.554-.499.535-.663.882-.246.743-.246 1.189c0 .492.104.902.314 1.23s.474.613.793.854.661.451 1.025.629.704.355 1.019.533.576.376.786.595.314.483.314.793c0 .511-.148.896-.444 1.155s-.723.39-1.278.39c-.183 0-.378-.019-.588-.055s-.419-.084-.629-.144-.412-.123-.608-.191-.357-.139-.485-.212l-.287 1.176c.155.137.34.253.554.349s.439.171.677.226.472.094.704.116.458.034.677.034c.511 0 .966-.077 1.367-.232s.738-.362 1.012-.622.485-.561.636-.902.226-.695.226-1.06c0-.538-.104-.978-.314-1.319s-.475-.626-.79-.854zM20.5 20v-4c0-.551.448-1 1-1a1 1 0 100-2c-1.654 0-3 1.346-3 3v4c0 1.103-.897 2-2 2a1 1 0 100 2c1.103 0 2 .897 2 2v4c0 1.654 1.346 3 3 3a1 1 0 100-2c-.552 0-1-.449-1-1v-4c0-1.2-.542-2.266-1.382-3a3.975 3.975 0 001.382-3z"/></svg><svg fill="#fff" viewBox="0 0 512.297 512.297" id="forward" xmlns="http://www.w3.org/2000/svg"><path d="M506.049 230.4l-192-192c-13.439-13.439-36.418-3.921-36.418 15.085v85.431C155.44 143.995 47.663 227.194 13.507 345.599 2.101 385.123-.745 417.65.154 452.659c.113 4.11.142 5.296.142 6.159 0 21.677 28.579 29.538 39.666 10.911 23.767-39.933 50.761-70.791 80.333-93.599 53.462-41.233 109.122-53.174 157.335-48.352v109.707c0 19.006 22.979 28.524 36.418 15.085l192-192c8.332-8.331 8.332-21.839.001-30.17zM320.297 385.982v-76.497a21.334 21.334 0 00-16.117-20.686c-2.596-.655-6.908-1.513-12.758-2.331-60.43-8.455-130.633 4.548-197.184 55.876-16.371 12.626-31.961 27.299-46.688 44.105l.326-1.708c1.701-8.759 3.879-17.804 6.624-27.315 30.45-105.558 130.034-178.409 240.312-176.032 1.864.033 2.552.048 3.415.078 12.063.416 22.069-9.25 22.069-21.321v-55.163l140.497 140.497-140.496 140.497z"/></svg><svg viewBox="0 0 512 512" id="gmail" xmlns="http://www.w3.org/2000/svg"><path fill="#eceff1" d="M64 64h384v384H64z"/><path fill="#cfd8dc" d="M256 296.384L448 448V148.672z"/><path d="M464 64h-16L256 215.616 64 64H48C21.504 64 0 85.504 0 112v288c0 26.496 21.504 48 48 48h16V148.672l192 147.68L448 148.64V448h16c26.496 0 48-21.504 48-48V112c0-26.496-21.504-48-48-48z" fill="#f44336"/></svg><svg fill="#8e9394" viewBox="0 0 512 512" id="html" xmlns="http://www.w3.org/2000/svg"><path d="M349.657 18.343A8 8 0 00344 16H120a56.064 56.064 0 00-56 56v368a56.064 56.064 0 0056 56h272a56.064 56.064 0 0056-56V120a8 8 0 00-2.343-5.657zM352 43.313L420.687 112H392a40.045 40.045 0 01-40-40zM120 32h216v40a56.064 56.064 0 0056 56h40v224H80V72a40.045 40.045 0 0140-40zm272 448H120a40.045 40.045 0 01-40-40v-72h352v72a40.045 40.045 0 01-40 40z"/><path d="M168 384a8 8 0 00-8 8v24h-16v-24a8 8 0 00-16 0v64a8 8 0 0016 0v-24h16v24a8 8 0 0016 0v-64a8 8 0 00-8-8zM232 384h-32a8 8 0 000 16h8v56a8 8 0 0016 0v-56h8a8 8 0 000-16zM313.838 384.214a8 8 0 00-8.993 4.208L288 422.111l-16.845-33.689A8 8 0 00256 392v64a8 8 0 0016 0v-30.111l8.845 17.689a8 8 0 0014.31 0L304 425.889V456a8 8 0 0016 0v-64a8 8 0 00-6.162-7.786zM376 448h-24v-56a8 8 0 00-16 0v64a8 8 0 008 8h32a8 8 0 000-16zM194.343 261.657a8 8 0 1011.314-11.314L163.313 208l42.344-42.343a8 8 0 00-11.314-11.314l-48 48a8 8 0 000 11.314zM306.343 261.657a8 8 0 0011.314 0l48-48a8 8 0 000-11.314l-48-48a8 8 0 00-11.314 11.314L348.687 208l-42.344 42.343a8 8 0 000 11.314zM229.47 287.589a7.991 7.991 0 0010.119-5.059l48-144a8 8 0 10-15.178-5.06l-48 144a8 8 0 005.059 10.119z"/></svg><svg fill="#8e9394" viewBox="0 0 512 512" id="javascript" xmlns="http://www.w3.org/2000/svg"><path d="M349.657 18.343A8 8 0 00344 16H120a56.063 56.063 0 00-56 56v368a56.063 56.063 0 0056 56h272a56.063 56.063 0 0056-56V120a8 8 0 00-2.343-5.657zM352 43.313L420.687 112H392a40.045 40.045 0 01-40-40zM120 32h216v40a56.063 56.063 0 0056 56h40v224H80V72a40.045 40.045 0 0140-40zm272 448H120a40.045 40.045 0 01-40-40v-72h352v72a40.045 40.045 0 01-40 40z"/><path d="M240 384a8 8 0 00-8 8v48a8 8 0 01-16 0 8 8 0 00-16 0 24 24 0 0048 0v-48a8 8 0 00-8-8zM288 400h16a8 8 0 000-16h-16a24 24 0 000 48 8 8 0 010 16h-16a8 8 0 000 16h16a24 24 0 000-48 8 8 0 010-16z"/><circle cx="288" cy="216" r="8"/><circle cx="224" cy="216" r="8"/><circle cx="256" cy="216" r="8"/><path d="M152 224a8.009 8.009 0 018 8v32a24.028 24.028 0 0024 24 8 8 0 000-16 8.009 8.009 0 01-8-8v-32a23.9 23.9 0 00-6.126-16A23.9 23.9 0 00176 200v-32a8.009 8.009 0 018-8 8 8 0 000-16 24.028 24.028 0 00-24 24v32a8.009 8.009 0 01-8 8 8 8 0 000 16zM336 264a8.009 8.009 0 01-8 8 8 8 0 000 16 24.028 24.028 0 0024-24v-32a8.009 8.009 0 018-8 8 8 0 000-16 8.009 8.009 0 01-8-8v-32a24.028 24.028 0 00-24-24 8 8 0 000 16 8.009 8.009 0 018 8v32a23.9 23.9 0 006.126 16A23.9 23.9 0 00336 232z"/></svg><svg fill="none" viewBox="0 0 1024 1024" id="octicons-mark-github" xmlns="http://www.w3.org/2000/svg"><path fill-rule="evenodd" clip-rule="evenodd" d="M512 0C229.12 0 0 229.12 0 512c0 226.56 146.56 417.92 350.08 485.76 25.6 4.48 35.2-10.88 35.2-24.32 0-12.16-.64-52.48-.64-95.36-128.64 23.68-161.92-31.36-172.16-60.16-5.76-14.72-30.72-60.16-52.48-72.32-17.92-9.6-43.52-33.28-.64-33.92 40.32-.64 69.12 37.12 78.72 52.48 46.08 77.44 119.68 55.68 149.12 42.24 4.48-33.28 17.92-55.68 32.64-68.48-113.92-12.8-232.96-56.96-232.96-252.8 0-55.68 19.84-101.76 52.48-137.6-5.12-12.8-23.04-65.28 5.12-135.68 0 0 42.88-13.44 140.8 52.48 40.96-11.52 84.48-17.28 128-17.28 43.52 0 87.04 5.76 128 17.28 97.92-66.56 140.8-52.48 140.8-52.48 28.16 70.4 10.24 122.88 5.12 135.68 32.64 35.84 52.48 81.28 52.48 137.6 0 196.48-119.68 240-233.6 252.8 18.56 16 34.56 46.72 34.56 94.72 0 68.48-.64 123.52-.64 140.8 0 13.44 9.6 29.44 35.2 24.32C877.44 929.92 1024 737.92 1024 512 1024 229.12 794.88 0 512 0z" fill="#1B1F23"/></svg><svg viewBox="-23 0 511 512" id="phone" xmlns="http://www.w3.org/2000/svg"><path d="M48.34 0h208.152v512H48.34zm0 0" fill="#ff7037"/><path d="M256.492 0h208.156v512H256.492zm0 0" fill="#fc0023"/><g fill="#0051bf"><path d="M.5 48.785h95.68v30H.5zm0 0M.5 144.895h95.68v30H.5zm0 0M.5 241h95.68v30H.5zm0 0M.5 337.105h95.68v30H.5zm0 0M.5 433.215h95.68v30H.5zm0 0"/></g><path d="M319.031 195.469v-99.79h-62.539L236.477 261l20.015 155.32h62.54v-99.789H286.52V195.47zm0 0" fill="#b4d2d7"/><path d="M252.086 95.68c-26.922 0-48.746 21.824-48.746 48.742v223.156c0 26.922 21.824 48.746 48.746 48.746h4.406V95.68zm0 0" fill="#e1ebf0"/></svg><svg viewBox="0 0 512 512" id="pin" xmlns="http://www.w3.org/2000/svg"><path d="M243.577 506.461c-7.065-7.868-173.004-194.146-173.004-321.035C70.574 83.182 153.756 0 256.001 0s185.426 83.182 185.426 185.426c0 126.888-165.939 313.167-173.004 321.035-6.637 7.393-18.224 7.378-24.846 0z" fill="#ff5752"/><path d="M441.426 185.426C441.426 83.182 358.244 0 256.001 0v512c4.552 0 9.106-1.843 12.423-5.539 7.063-7.867 173.002-194.146 173.002-321.035z" fill="#db3a3c"/><path d="M256.001 278.719c-51.442 0-93.291-41.851-93.291-93.293s41.851-93.293 93.291-93.293 93.291 41.851 93.291 93.293-41.851 93.293-93.291 93.293z" fill="#efefef"/><path d="M256.001 92.134v186.585c51.442 0 93.291-41.851 93.291-93.293s-41.851-93.292-93.291-93.292z" fill="#c5d8df"/></svg><svg fill="#fff" viewBox="0 0 24 24" id="telegram" xmlns="http://www.w3.org/2000/svg"><path d="M9.417 15.181l-.397 5.584c.568 0 .814-.244 1.109-.537l2.663-2.545 5.518 4.041c1.012.564 1.725.267 1.998-.931L23.93 3.821l.001-.001c.321-1.496-.541-2.081-1.527-1.714l-21.29 8.151c-1.453.564-1.431 1.374-.247 1.741l5.443 1.693L18.953 5.78c.595-.394 1.136-.176.691.218z"/></svg><svg fill="#fff" viewBox="0 0 24 24" id="viber" xmlns="http://www.w3.org/2000/svg"><path d="M23.155 13.893c.716-6.027-.344-9.832-2.256-11.553l.001-.001C17.814-.6 7.392-1.035 3.7 2.471 2.042 4.186 1.458 6.703 1.394 9.819c-.064 3.117-.14 8.956 5.301 10.54H6.7l-.005 2.419s-.037.98.589 1.177c.716.232 1.04-.223 3.267-2.883 3.724.323 6.584-.417 6.909-.525.752-.252 5.007-.815 5.695-6.654zM10.918 19.37s-2.357 2.939-3.09 3.702c-.24.248-.503.225-.499-.267 0-.323.018-4.016.018-4.016-4.613-1.322-4.341-6.294-4.291-8.895.05-2.602.526-4.733 1.93-6.168C8.225.689 17.362 1.368 19.69 3.556c2.846 2.523 1.833 9.651 1.839 9.894-.585 4.874-4.033 5.183-4.667 5.394-.271.09-2.786.737-5.944.526z"/><path d="M12.222 4.297c-.385 0-.385.6 0 .605 2.987.023 5.447 2.105 5.474 5.924 0 .403.59.398.585-.005h-.001c-.032-4.115-2.718-6.501-6.058-6.524z"/><path d="M16.151 10.193c-.009.398.58.417.585.014.049-2.269-1.35-4.138-3.979-4.335-.385-.028-.425.577-.041.605 2.28.173 3.481 1.729 3.435 3.716zM15.521 12.774c-.494-.286-.997-.108-1.205.173l-.435.563c-.221.286-.634.248-.634.248-3.014-.797-3.82-3.951-3.82-3.951s-.037-.427.239-.656l.544-.45c.272-.216.444-.736.167-1.247-.74-1.337-1.237-1.798-1.49-2.152-.266-.333-.666-.408-1.082-.183h-.009c-.865.506-1.812 1.453-1.509 2.428.517 1.028 1.467 4.305 4.495 6.781 1.423 1.171 3.675 2.371 4.631 2.648l.009.014c.942.314 1.858-.67 2.347-1.561v-.007c.217-.431.145-.839-.172-1.106-.562-.548-1.41-1.153-2.076-1.542z"/><path d="M13.169 8.104c.961.056 1.427.558 1.477 1.589.018.403.603.375.585-.028-.064-1.346-.766-2.096-2.03-2.166-.385-.023-.421.582-.032.605z"/></svg><svg fill="#fff" viewBox="0 0 548.358 548.358" id="vk" xmlns="http://www.w3.org/2000/svg"><path d="M545.451 400.298c-.664-1.431-1.283-2.618-1.858-3.569-9.514-17.135-27.695-38.167-54.532-63.102l-.567-.571-.284-.28-.287-.287h-.288c-12.18-11.611-19.893-19.418-23.123-23.415-5.91-7.614-7.234-15.321-4.004-23.13 2.282-5.9 10.854-18.36 25.696-37.397 7.807-10.089 13.99-18.175 18.556-24.267 32.931-43.78 47.208-71.756 42.828-83.939l-1.701-2.847c-1.143-1.714-4.093-3.282-8.846-4.712-4.764-1.427-10.853-1.663-18.278-.712l-82.224.568c-1.332-.472-3.234-.428-5.712.144l-3.713.859-1.431.715-1.136.859c-.952.568-1.999 1.567-3.142 2.995-1.137 1.423-2.088 3.093-2.848 4.996-8.952 23.031-19.13 44.444-30.553 64.238-7.043 11.803-13.511 22.032-19.418 30.693-5.899 8.658-10.848 15.037-14.842 19.126-4 4.093-7.61 7.372-10.852 9.849-3.237 2.478-5.708 3.525-7.419 3.142-1.715-.383-3.33-.763-4.859-1.143-2.663-1.714-4.805-4.045-6.42-6.995-1.622-2.95-2.714-6.663-3.285-11.136-.568-4.476-.904-8.326-1-11.563-.089-3.233-.048-7.806.145-13.706.198-5.903.287-9.897.287-11.991 0-7.234.141-15.085.424-23.555.288-8.47.521-15.181.716-20.125.194-4.949.284-10.185.284-15.705s-.336-9.849-1-12.991a44.442 44.442 0 00-2.99-9.137c-1.335-2.95-3.289-5.232-5.853-6.852-2.569-1.618-5.763-2.902-9.564-3.856-10.089-2.283-22.936-3.518-38.547-3.71-35.401-.38-58.148 1.906-68.236 6.855-3.997 2.091-7.614 4.948-10.848 8.562-3.427 4.189-3.905 6.475-1.431 6.851 11.422 1.711 19.508 5.804 24.267 12.275l1.715 3.429c1.334 2.474 2.666 6.854 3.999 13.134 1.331 6.28 2.19 13.227 2.568 20.837.95 13.897.95 25.793 0 35.689-.953 9.9-1.853 17.607-2.712 23.127-.859 5.52-2.143 9.993-3.855 13.418-1.715 3.426-2.856 5.52-3.428 6.28-.571.76-1.047 1.239-1.425 1.427a21.387 21.387 0 01-7.71 1.431c-2.667 0-5.901-1.334-9.707-4-3.805-2.666-7.754-6.328-11.847-10.992-4.093-4.665-8.709-11.184-13.85-19.558-5.137-8.374-10.467-18.271-15.987-29.691l-4.567-8.282c-2.855-5.328-6.755-13.086-11.704-23.267-4.952-10.185-9.329-20.037-13.134-29.554-1.521-3.997-3.806-7.04-6.851-9.134l-1.429-.859c-.95-.76-2.475-1.567-4.567-2.427a30.301 30.301 0 00-6.567-1.854l-78.229.568c-7.994 0-13.418 1.811-16.274 5.428l-1.143 1.711c-.571.953-.859 2.475-.859 4.57 0 2.094.571 4.664 1.714 7.707 11.42 26.84 23.839 52.725 37.257 77.659 13.418 24.934 25.078 45.019 34.973 60.237 9.897 15.229 19.985 29.602 30.264 43.112 10.279 13.515 17.083 22.176 20.412 25.981 3.333 3.812 5.951 6.662 7.854 8.565l7.139 6.851c4.568 4.569 11.276 10.041 20.127 16.416 8.853 6.379 18.654 12.659 29.408 18.85 10.756 6.181 23.269 11.225 37.546 15.126 14.275 3.905 28.169 5.472 41.684 4.716h32.834c6.659-.575 11.704-2.669 15.133-6.283l1.136-1.431c.764-1.136 1.479-2.901 2.139-5.276.668-2.379 1-5 1-7.851-.195-8.183.428-15.558 1.852-22.124 1.423-6.564 3.045-11.513 4.859-14.846 1.813-3.33 3.859-6.14 6.136-8.418 2.282-2.283 3.908-3.666 4.862-4.142.948-.479 1.705-.804 2.276-.999 4.568-1.522 9.944-.048 16.136 4.429 6.187 4.473 11.99 9.996 17.418 16.56 5.425 6.57 11.943 13.941 19.555 22.124 7.617 8.186 14.277 14.271 19.985 18.274l5.708 3.426c3.812 2.286 8.761 4.38 14.853 6.283 6.081 1.902 11.409 2.378 15.984 1.427l73.087-1.14c7.229 0 12.854-1.197 16.844-3.572 3.998-2.379 6.373-5 7.139-7.851.764-2.854.805-6.092.145-9.712-.677-3.611-1.344-6.136-2.008-7.563z"/></svg></svg>